<?xml version="1.0" encoding="utf-8"?>
<!-- Generator: Adobe Illustrator 23.1.0, SVG Export Plug-In . SVG Version: 6.00 Build 0)  -->
<svg version="1.1" id="Layer_1" xmlns="http://www.w3.org/2000/svg" xmlns:xlink="http://www.w3.org/1999/xlink" x="0px" y="0px"
	 viewBox="0 0 1604 237" style="enable-background:new 0 0 1604 237;" xml:space="preserve">
<style type="text/css">
	.st0{clip-path:url(#SVGID_2_);}
	.st1{fill:#FB7700;}
</style>
<g>
	<defs>
		<rect id="SVGID_1_" x="-43" y="-13" transform="matrix(-1 -1.224647e-16 1.224647e-16 -1 1541 272)" width="1627" height="298"/>
	</defs>
	<clipPath id="SVGID_2_">
		<use xlink:href="#SVGID_1_"  style="overflow:visible;"/>
	</clipPath>
	<g class="st0">
		<path class="st1" d="M85.11,34.89H14.55V22.01h155.4v12.88H99.39v183.12H85.11V34.89z"/>
		<polygon class="st1" points="219.51,34.94 219.51,34.89 336.26,34.89 336.26,22.01 205.23,22.01 205.23,34.94 		"/>
		<path class="st1" d="M340.35,205.15H205.23v12.86h135.24v-12.86C340.43,205.15,340.39,205.15,340.35,205.15z"/>
		<rect x="205.23" y="111.54" class="st1" width="130.77" height="13.81"/>
		<path class="st1" d="M372.66,120.01c0-57.12,43.4-99.4,101.64-99.4c27.72,0,52.64,8.96,69.72,27.16l-8.96,9.24
			c-16.8-16.52-37.24-23.24-60.2-23.24c-50.12,0-87.92,36.96-87.92,86.24s37.8,86.24,87.92,86.24c22.96,0,43.4-7,60.2-23.52
			l8.96,9.24c-17.08,18.2-42,27.44-69.72,27.44C416.06,219.41,372.66,177.13,372.66,120.01z"/>
		<path class="st1" d="M751.5,22.01v196h-14.28v-93.24H606.18v93.24H591.9v-196h14.28v90.16h131.04V22.01H751.5z"/>
		<path class="st1" d="M801.06,120.01c0-57.12,43.4-99.4,101.64-99.4c27.72,0,52.64,8.96,69.72,27.16l-8.96,9.24
			c-16.8-16.52-37.24-23.24-60.2-23.24c-50.12,0-87.92,36.96-87.92,86.24s37.8,86.24,87.92,86.24c22.96,0,43.4-7,60.2-23.52
			l8.96,9.24c-17.08,18.2-42,27.44-69.72,27.44C844.46,219.41,801.06,177.13,801.06,120.01z"/>
		<path class="st1" d="M1018.34,134.85V22.01h14.28v112.28c0,49,23.52,71.96,64.4,71.96s64.12-22.96,64.12-71.96V22.01h14.28v112.84
			c0,56-29.96,84.56-78.68,84.56S1018.34,190.85,1018.34,134.85z"/>
		<path class="st1" d="M1358.54,116.93c19.6-6.44,32.76-21.56,32.76-44.8c0-32.48-25.48-50.12-67.48-50.12h-81.76v12.34h14.28v-0.02
			h66.92c33.88,0,53.48,13.16,53.48,38.92c0,26.04-19.6,39.2-53.48,39.2h-66.92v-0.01h-14.28v12.31h14.37
			c0.11,0,0.21,0.01,0.31,0.02h72.68c37.52,0,57.96,12.32,57.96,40.32c0,28.28-20.44,40.6-57.96,40.6h-72.8
			c-0.07,0-0.15,0.01-0.22,0.01h-14.34v12.31h87.36c48.16,0,72.24-18.76,72.24-51.8C1401.66,139.05,1386.26,122.25,1358.54,116.93z"
			/>
		<path class="st1" d="M1584.86,205.13v12.88h-132.24v-196h132.04v12.88H1466.9v77.28h117.44v12.6H1466.9v80.36H1584.86z"/>
	</g>
</g>
</svg>
